<?xml version="1.0" encoding="UTF-8" standalone="no"?>
<!DOCTYPE svg PUBLIC "-//W3C//DTD SVG 1.1//EN" "http://www.w3.org/Graphics/SVG/1.1/DTD/svg11.dtd">
<svg version="1.1" xmlns="http://www.w3.org/2000/svg" xmlns:xlink="http://www.w3.org/1999/xlink" preserveAspectRatio="xMidYMid meet" viewBox="0 0 192 192" width="192" height="192"><defs><path d="M162.04 20C167.54 20 172 24.46 172 29.96C172 58.37 172 133.46 172 161.83C172 167.44 167.44 172 161.83 172C133.46 172 58.29 172 29.87 172C24.42 172 20 167.58 20 162.13C20 133.71 20 58.43 20 30.03C20 24.49 24.49 20 30.03 20C58.43 20 133.63 20 162.04 20Z" id="fwrAdi7bi"></path><path d="M139 96C139 119.73 119.73 139 96 139C72.27 139 53 119.73 53 96C53 72.27 72.27 53 96 53C119.73 53 139 72.27 139 96Z" id="f2hUbF5lVO"></path><clipPath id="clipl6Ks9wvHJ0"><use xlink:href="#f2hUbF5lVO" opacity="1"></use></clipPath><path d="" id="hwfvBsKiI"></path><path d="M139 86L139 53L105 53L96 96L139 86Z" id="aYiOhzGQ9"></path><path d="M136 81C136 81 136 81 136 81C131.55 69.13 122.22 59.75 110.37 55.23C110.33 55.21 110.21 55.16 110.01 55.09C102.6 76.74 97.96 90.27 96.11 95.68C96.07 95.81 96.19 95.93 96.32 95.88C101.61 93.9 114.83 88.94 136 81Z" id="a6lyVhHcy"></path><path d="M75.5 93.5C76.88 93.5 78 94.62 78 96C78 96.5 78 95.5 78 96C78 97.38 76.88 98.5 75.5 98.5C73 98.5 68 98.5 65.5 98.5C64.12 98.5 63 97.38 63 96C63 95.5 63 96.5 63 96C63 94.62 64.12 93.5 65.5 93.5C68 93.5 73 93.5 75.5 93.5Z" id="a1vlrevfrK"></path><path d="M98.5 126.5C98.5 127.88 97.38 129 96 129C95.5 129 96.5 129 96 129C94.62 129 93.5 127.88 93.5 126.5C93.5 124 93.5 119 93.5 116.5C93.5 115.12 94.62 114 96 114C96.5 114 95.5 114 96 114C97.38 114 98.5 115.12 98.5 116.5C98.5 119 98.5 124 98.5 126.5Z" id="b1irPYvwqr"></path><path d="M119.27 115.73C120.24 116.71 120.24 118.29 119.27 119.27C118.91 119.62 119.62 118.91 119.27 119.27C118.29 120.24 116.71 120.24 115.73 119.27C113.96 117.5 110.43 113.96 108.66 112.2C107.68 111.22 107.68 109.64 108.66 108.66C109.01 108.31 108.31 109.01 108.66 108.66C109.64 107.68 111.22 107.68 112.2 108.66C113.96 110.43 117.5 113.96 119.27 115.73Z" id="a2B1PVknHx"></path><path d="M83.34 79.8C84.32 80.78 84.32 82.36 83.34 83.34C82.99 83.69 83.69 82.99 83.34 83.34C82.36 84.32 80.78 84.32 79.8 83.34C78.04 81.57 74.5 78.04 72.73 76.27C71.76 75.29 71.76 73.71 72.73 72.73C73.09 72.38 72.38 73.09 72.73 72.73C73.71 71.76 75.29 71.76 76.27 72.73C78.04 74.5 81.57 78.04 83.34 79.8Z" id="c921vHDc4F"></path><path d="M76.27 119.27C75.29 120.24 73.71 120.24 72.73 119.27C72.38 118.91 73.09 119.62 72.73 119.27C71.76 118.29 71.76 116.71 72.73 115.73C74.5 113.96 78.04 110.43 79.8 108.66C80.78 107.68 82.36 107.68 83.34 108.66C83.69 109.01 82.99 108.31 83.34 108.66C84.32 109.64 84.32 111.22 83.34 112.2C81.57 113.96 78.04 117.5 76.27 119.27Z" id="e5coXeSmfl"></path></defs><g><g><g><g><filter id="shadow8638332" x="11" y="11" width="171" height="171" filterUnits="userSpaceOnUse" primitiveUnits="userSpaceOnUse"><feFlood></feFlood><feComposite in2="SourceAlpha" operator="in"></feComposite><feGaussianBlur stdDeviation="1"></feGaussianBlur><feOffset dx="1" dy="1" result="afterOffset"></feOffset><feFlood flood-color="#000000" flood-opacity="0.2"></feFlood><feComposite in2="afterOffset" operator="in"></feComposite><feMorphology operator="dilate" radius="1"></feMorphology><feComposite in2="SourceAlpha" operator="out"></feComposite></filter><path d="M162.04 20C167.54 20 172 24.46 172 29.96C172 58.37 172 133.46 172 161.83C172 167.44 167.44 172 161.83 172C133.46 172 58.29 172 29.87 172C24.42 172 20 167.58 20 162.13C20 133.71 20 58.43 20 30.03C20 24.49 24.49 20 30.03 20C58.43 20 133.63 20 162.04 20Z" id="a42bExY7YC" fill="white" fill-opacity="1" filter="url(#shadow8638332)"></path></g><use xlink:href="#fwrAdi7bi" opacity="1" fill="#ff9f00" fill-opacity="1"></use></g><g><g><filter id="shadow2316385" x="-80" y="-80" width="362" height="380" filterUnits="userSpaceOnUse" primitiveUnits="userSpaceOnUse"><feFlood></feFlood><feComposite in2="SourceAlpha" operator="in"></feComposite><feGaussianBlur stdDeviation="7.07"></feGaussianBlur><feOffset dx="10" dy="28" result="afterOffset"></feOffset><feFlood flood-color="#464646" flood-opacity="0.15"></feFlood><feComposite in2="afterOffset" operator="in"></feComposite><feMorphology operator="dilate" radius="0"></feMorphology><feComposite in2="SourceAlpha" operator="out"></feComposite></filter><path d="M139 96C139 119.73 119.73 139 96 139C72.27 139 53 119.73 53 96C53 72.27 72.27 53 96 53C119.73 53 139 72.27 139 96Z" id="bfcH6021j" fill="white" fill-opacity="1" filter="url(#shadow2316385)"></path></g><use xlink:href="#f2hUbF5lVO" opacity="1" fill="#ff9f00" fill-opacity="1"></use><g clip-path="url(#clipl6Ks9wvHJ0)"><use xlink:href="#f2hUbF5lVO" opacity="1" fill-opacity="0" stroke="#ffffff" stroke-width="10" stroke-opacity="1"></use></g></g><g><g><use xlink:href="#hwfvBsKiI" opacity="1" fill-opacity="0" stroke="#ffffff" stroke-width="5" stroke-opacity="1"></use></g></g><g><use xlink:href="#aYiOhzGQ9" opacity="1" fill="#ff9f00" fill-opacity="1"></use></g><g><use xlink:href="#a6lyVhHcy" opacity="1" fill="#ffffff" fill-opacity="1"></use></g><g><use xlink:href="#a1vlrevfrK" opacity="1" fill="#ffffff" fill-opacity="1"></use></g><g><use xlink:href="#b1irPYvwqr" opacity="1" fill="#ffffff" fill-opacity="1"></use></g><g><use xlink:href="#a2B1PVknHx" opacity="1" fill="#ffffff" fill-opacity="1"></use></g><g><use xlink:href="#c921vHDc4F" opacity="1" fill="#ffffff" fill-opacity="1"></use></g><g><use xlink:href="#e5coXeSmfl" opacity="1" fill="#ffffff" fill-opacity="1"></use></g></g></g></svg>